<svg xmlns="http://www.w3.org/2000/svg" viewBox="0 0 64 64" width="64" height="64" role="img" aria-label="neurokeeper">
  <defs>
    <path id="h" d="M32 7.5C36.4 4.8 43.5 5.8 46 11.6 52.6 12 57.4 18.2 54.3 24.4 58.9 27.6 58.9 36.2 52.7 39.2 52.9 46 47 50.7 40.4 48.6 38.3 52.8 35 54.5 32 54.5" fill="none" stroke="#222834" stroke-width="2.5" stroke-linecap="round" stroke-linejoin="round"/>
    <path id="f" d="M43.5 15.5C47.8 19.4 47.8 27 43.5 31" fill="none" stroke="#222834" stroke-width="2.1" stroke-linecap="round" opacity=".5"/>
  </defs>
  <use href="#h"/>
  <use href="#h" transform="matrix(-1 0 0 1 64 0)"/>
  <use href="#f"/>
  <use href="#f" transform="matrix(-1 0 0 1 64 0)"/>
  <g transform="translate(21.6 23.4) scale(.87)" fill="#10b981">
    <path d="M12 5V2L8 6l4 4V7c3.31 0 6 2.69 6 6 0 1.01-.25 1.97-.7 2.8l1.46 1.46A7.93 7.93 0 0 0 20 13c0-4.42-3.58-8-8-8z"/>
    <path d="M12 19c-3.31 0-6-2.69-6-6 0-1.01.25-1.97.7-2.8L5.24 8.74A7.93 7.93 0 0 0 4 13c0 4.42 3.58 8 8 8v3l4-4-4-4v3z"/>
  </g>
</svg>
